<?xml version="1.0" encoding="UTF-8"?>
<svg xmlns="http://www.w3.org/2000/svg" xmlns:xlink="http://www.w3.org/1999/xlink" width="401.8pt" height="148.2pt" viewBox="0 0 401.8 148.2" version="1.1">
<defs>
<clipPath id="clip1">
  <path d="M 185 124 L 401.800781 124 L 401.800781 148.199219 L 185 148.199219 Z M 185 124 "/>
</clipPath>
</defs>
<g id="surface1">
<path style=" stroke:none;fill-rule:evenodd;fill:rgb(32.542419%,32.151794%,33.325195%);fill-opacity:1;" d="M 339.855469 77.140625 C 340.433594 74.855469 341.21875 73.21875 342.214844 72.230469 C 343.210938 71.238281 344.320313 70.746094 345.546875 70.746094 C 346.835938 70.746094 347.726563 71.230469 348.230469 72.203125 C 348.730469 73.179688 348.71875 74.722656 348.183594 76.835938 C 347.546875 79.34375 346.746094 81.082031 345.785156 82.054688 C 344.824219 83.019531 343.683594 83.507813 342.371094 83.507813 C 341.105469 83.507813 340.21875 83.011719 339.730469 82.023438 C 339.242188 81.03125 339.285156 79.40625 339.855469 77.140625 Z M 333.765625 77.109375 C 333.101563 79.730469 333.003906 81.914063 333.46875 83.660156 C 333.9375 85.402344 334.789063 86.671875 336.046875 87.488281 C 337.300781 88.289063 339.039063 88.695313 341.265625 88.695313 C 343.453125 88.695313 345.398438 88.230469 347.105469 87.289063 C 348.808594 86.359375 350.257813 85.054688 351.453125 83.378906 C 352.660156 81.699219 353.59375 79.542969 354.257813 76.921875 C 355.164063 73.316406 354.988281 70.507813 353.71875 68.507813 C 352.449219 66.496094 350.171875 65.496094 346.886719 65.496094 C 343.6875 65.496094 340.929688 66.515625 338.621094 68.558594 C 336.3125 70.59375 334.691406 73.445313 333.765625 77.109375 Z M 317.027344 65.878906 L 335.558594 65.878906 L 334.15625 71.417969 L 327.9375 71.417969 L 323.664063 88.3125 L 317.570313 88.3125 L 321.839844 71.417969 L 315.621094 71.417969 Z M 308.289063 65.878906 L 304.828125 79.574219 C 304.515625 80.816406 303.96875 81.78125 303.203125 82.457031 C 302.4375 83.136719 301.527344 83.476563 300.480469 83.476563 C 299.414063 83.476563 298.675781 83.128906 298.253906 82.441406 C 297.835938 81.757813 297.78125 80.796875 298.089844 79.574219 L 301.554688 65.878906 L 295.464844 65.878906 L 292.085938 79.253906 C 291.804688 80.355469 291.671875 81.621094 291.691406 83.042969 C 291.699219 83.933594 291.914063 84.792969 292.335938 85.632813 C 292.757813 86.46875 293.289063 87.117188 293.941406 87.570313 C 294.589844 88.023438 295.453125 88.328125 296.554688 88.480469 C 297.648438 88.636719 298.675781 88.710938 299.636719 88.710938 C 301.300781 88.710938 302.785156 88.457031 304.09375 87.960938 C 305.039063 87.601563 306.007813 86.984375 307.007813 86.101563 C 308.007813 85.21875 308.839844 84.1875 309.496094 83.011719 C 310.160156 81.832031 310.660156 80.582031 310.996094 79.253906 L 314.378906 65.878906 Z M 274.164063 65.878906 L 292.699219 65.878906 L 291.296875 71.417969 L 285.078125 71.417969 L 280.804688 88.3125 L 274.710938 88.3125 L 278.980469 71.417969 L 272.765625 71.417969 Z M 265.070313 65.878906 L 259.394531 88.3125 L 265.503906 88.3125 L 271.175781 65.878906 Z M 243.539063 65.878906 L 262.070313 65.878906 L 260.664063 71.417969 L 254.449219 71.417969 L 250.175781 88.3125 L 244.078125 88.3125 L 248.351563 71.417969 L 242.136719 71.417969 Z M 220.160156 80.890625 L 226.066406 80.476563 C 225.921875 81.542969 225.972656 82.363281 226.214844 82.921875 C 226.609375 83.835938 227.398438 84.285156 228.5625 84.285156 C 229.429688 84.285156 230.160156 84.054688 230.746094 83.589844 C 231.335938 83.121094 231.703125 82.585938 231.863281 81.976563 C 232.007813 81.398438 231.921875 80.871094 231.585938 80.414063 C 231.253906 79.953125 230.324219 79.519531 228.789063 79.113281 C 226.289063 78.429688 224.613281 77.527344 223.761719 76.390625 C 222.898438 75.257813 222.6875 73.816406 223.132813 72.0625 C 223.425781 70.910156 223.996094 69.816406 224.84375 68.789063 C 225.691406 67.769531 226.773438 66.964844 228.105469 66.371094 C 229.433594 65.789063 231.121094 65.496094 233.175781 65.496094 C 235.699219 65.496094 237.488281 66.03125 238.539063 67.09375 C 239.59375 68.160156 239.953125 69.859375 239.617188 72.183594 L 233.773438 72.5625 C 233.878906 71.554688 233.742188 70.820313 233.367188 70.359375 C 232.996094 69.90625 232.378906 69.671875 231.519531 69.671875 C 230.808594 69.671875 230.230469 69.84375 229.785156 70.1875 C 229.339844 70.527344 229.054688 70.945313 228.933594 71.4375 C 228.84375 71.789063 228.910156 72.109375 229.128906 72.398438 C 229.34375 72.695313 229.953125 72.964844 230.96875 73.222656 C 233.46875 73.871094 235.203125 74.539063 236.191406 75.207031 C 237.175781 75.871094 237.808594 76.699219 238.078125 77.691406 C 238.355469 78.679688 238.339844 79.789063 238.03125 81.015625 C 237.664063 82.453125 236.976563 83.777344 235.972656 84.992188 C 234.964844 86.207031 233.757813 87.128906 232.339844 87.753906 C 230.925781 88.378906 229.261719 88.695313 227.351563 88.695313 C 223.996094 88.695313 221.859375 87.960938 220.941406 86.488281 C 220.015625 85.019531 219.757813 83.15625 220.160156 80.890625 Z M 202.105469 65.878906 L 196.429688 88.3125 L 202.164063 88.3125 L 205.277344 75.996094 L 209.550781 88.3125 L 215.296875 88.3125 L 220.972656 65.878906 L 215.226563 65.878906 L 212.089844 78.289063 L 207.796875 65.878906 Z M 191.578125 65.878906 L 197.691406 65.878906 L 192.015625 88.3125 L 185.90625 88.3125 Z M 191.578125 65.878906 "/>
<path style=" stroke:none;fill-rule:evenodd;fill:rgb(32.542419%,32.151794%,33.325195%);fill-opacity:1;" d="M 320.996094 106.851563 C 321.578125 104.570313 322.367188 102.929688 323.359375 101.941406 C 324.355469 100.949219 325.464844 100.457031 326.691406 100.457031 C 327.980469 100.457031 328.871094 100.945313 329.371094 101.914063 C 329.871094 102.890625 329.863281 104.433594 329.328125 106.542969 C 328.695313 109.054688 327.890625 110.789063 326.925781 111.765625 C 325.964844 112.734375 324.828125 113.21875 323.519531 113.21875 C 322.246094 113.21875 321.363281 112.722656 320.871094 111.734375 C 320.382813 110.742188 320.425781 109.121094 320.996094 106.851563 Z M 314.910156 106.820313 C 314.246094 109.441406 314.148438 111.621094 314.613281 113.371094 C 315.078125 115.117188 315.9375 116.390625 317.1875 117.199219 C 318.449219 118.003906 320.1875 118.40625 322.410156 118.40625 C 324.601563 118.40625 326.539063 117.941406 328.246094 117.003906 C 329.949219 116.070313 331.402344 114.765625 332.601563 113.085938 C 333.800781 111.410156 334.738281 109.257813 335.402344 106.636719 C 336.3125 103.027344 336.132813 100.21875 334.867188 98.21875 C 333.59375 96.210938 331.316406 95.207031 328.035156 95.207031 C 324.828125 95.207031 322.074219 96.226563 319.761719 98.269531 C 317.453125 100.304688 315.835938 103.160156 314.910156 106.820313 Z M 295.601563 95.589844 L 301.296875 95.589844 L 305.585938 107.996094 L 308.722656 95.589844 L 314.46875 95.589844 L 308.796875 118.023438 L 303.050781 118.023438 L 298.773438 105.707031 L 295.660156 118.023438 L 289.925781 118.023438 Z M 281.476563 109.46875 L 277.121094 109.46875 L 281.328125 101.402344 Z M 281.527344 114.320313 L 281.558594 118.023438 L 287.9375 118.023438 L 286.195313 95.589844 L 279.546875 95.589844 L 266.460938 118.023438 L 272.6875 118.023438 L 274.578125 114.320313 Z M 264.945313 95.589844 L 271.03125 95.589844 L 267.648438 108.964844 C 267.3125 110.289063 266.8125 111.539063 266.152344 112.722656 C 265.492188 113.898438 264.660156 114.929688 263.660156 115.816406 C 262.660156 116.699219 261.691406 117.3125 260.746094 117.667969 C 259.4375 118.167969 257.953125 118.417969 256.289063 118.417969 C 255.328125 118.417969 254.300781 118.347656 253.203125 118.191406 C 252.109375 118.039063 251.242188 117.738281 250.59375 117.28125 C 249.945313 116.828125 249.410156 116.179688 248.988281 115.34375 C 248.566406 114.507813 248.351563 113.648438 248.34375 112.757813 C 248.328125 111.332031 248.453125 110.070313 248.738281 108.964844 L 252.121094 95.589844 L 258.203125 95.589844 L 254.742188 109.285156 C 254.429688 110.511719 254.488281 111.46875 254.910156 112.152344 C 255.328125 112.84375 256.070313 113.1875 257.132813 113.1875 C 258.179688 113.1875 259.089844 112.847656 259.859375 112.164063 C 260.621094 111.496094 261.164063 110.53125 261.480469 109.285156 Z M 235.046875 104.679688 L 237.621094 104.679688 C 237.898438 104.679688 238.460938 104.578125 239.3125 104.371094 C 239.738281 104.28125 240.128906 104.042969 240.480469 103.667969 C 240.828125 103.289063 241.066406 102.863281 241.191406 102.371094 C 241.371094 101.644531 241.3125 101.089844 241.007813 100.703125 C 240.703125 100.3125 239.992188 100.121094 238.878906 100.121094 L 236.203125 100.121094 Z M 225.550781 118.023438 L 231.222656 95.589844 L 241.382813 95.589844 C 243.269531 95.589844 244.664063 95.773438 245.5625 96.144531 C 246.464844 96.507813 247.097656 97.1875 247.453125 98.1875 C 247.820313 99.179688 247.816406 100.390625 247.453125 101.816406 C 247.136719 103.066406 246.632813 104.136719 245.941406 105.039063 C 245.242188 105.941406 244.414063 106.667969 243.460938 107.238281 C 242.847656 107.59375 242.058594 107.890625 241.09375 108.121094 C 241.753906 108.398438 242.210938 108.671875 242.476563 108.953125 C 242.648438 109.132813 242.878906 109.527344 243.152344 110.121094 C 243.425781 110.734375 243.59375 111.191406 243.65625 111.519531 L 244.953125 118.023438 L 238.070313 118.023438 L 236.546875 111.164063 C 236.355469 110.285156 236.132813 109.703125 235.871094 109.4375 C 235.527344 109.089844 235.070313 108.914063 234.511719 108.914063 L 233.976563 108.914063 L 231.675781 118.023438 Z M 211.230469 95.589844 L 205.554688 118.023438 L 222.1875 118.023438 L 223.472656 112.941406 L 212.953125 112.941406 L 214.070313 108.523438 L 223.554688 108.523438 L 224.710938 103.949219 L 215.226563 103.949219 L 216.128906 100.378906 L 226.351563 100.378906 L 227.566406 95.589844 Z M 195.015625 105.15625 L 196.511719 105.15625 C 197.6875 105.15625 198.566406 104.917969 199.164063 104.457031 C 199.753906 103.996094 200.140625 103.398438 200.324219 102.671875 C 200.503906 101.972656 200.449219 101.371094 200.15625 100.886719 C 199.871094 100.394531 199.160156 100.152344 198.019531 100.152344 L 196.285156 100.152344 Z M 191.3125 95.589844 L 201.445313 95.589844 C 203.652344 95.589844 205.15625 96.183594 205.949219 97.382813 C 206.746094 98.570313 206.867188 100.277344 206.3125 102.472656 C 205.738281 104.742188 204.691406 106.511719 203.171875 107.789063 C 201.648438 109.0625 199.660156 109.699219 197.203125 109.699219 L 193.867188 109.699219 L 191.761719 118.023438 L 185.640625 118.023438 Z M 191.3125 95.589844 "/>
<g clip-path="url(#clip1)" clip-rule="nonzero">
<path style=" stroke:none;fill-rule:evenodd;fill:rgb(32.542419%,32.151794%,33.325195%);fill-opacity:1;" d="M 385.535156 125.296875 L 379.859375 147.738281 L 396.492188 147.738281 L 397.777344 142.652344 L 387.253906 142.652344 L 388.371094 138.234375 L 397.859375 138.234375 L 399.015625 133.660156 L 389.53125 133.660156 L 390.433594 130.089844 L 400.65625 130.089844 L 401.867188 125.296875 Z M 364.257813 125.296875 L 382.789063 125.296875 L 381.386719 130.84375 L 375.164063 130.84375 L 370.894531 147.738281 L 364.796875 147.738281 L 369.070313 130.84375 L 362.855469 130.84375 Z M 348.351563 134.390625 L 349.507813 129.828125 L 352.183594 129.828125 C 353.296875 129.828125 354.003906 130.023438 354.308594 130.414063 C 354.617188 130.796875 354.679688 131.355469 354.496094 132.082031 C 354.371094 132.574219 354.132813 133.003906 353.785156 133.382813 C 353.433594 133.757813 353.039063 133.992188 352.613281 134.085938 C 351.765625 134.289063 351.203125 134.390625 350.925781 134.390625 Z M 338.855469 147.738281 L 344.980469 147.738281 L 347.28125 138.632813 L 347.820313 138.632813 C 348.371094 138.632813 348.828125 138.804688 349.179688 139.148438 C 349.441406 139.414063 349.660156 139.996094 349.851563 140.875 L 351.371094 147.738281 L 358.261719 147.738281 L 356.953125 141.234375 C 356.898438 140.90625 356.730469 140.445313 356.453125 139.832031 C 356.179688 139.238281 355.953125 138.84375 355.78125 138.664063 C 355.515625 138.386719 355.054688 138.109375 354.402344 137.832031 C 355.363281 137.601563 356.152344 137.304688 356.761719 136.949219 C 357.71875 136.386719 358.546875 135.65625 359.246094 134.746094 C 359.9375 133.847656 360.441406 132.777344 360.757813 131.527344 C 361.121094 130.101563 361.121094 128.890625 360.761719 127.898438 C 360.402344 126.898438 359.773438 126.21875 358.867188 125.855469 C 357.96875 125.484375 356.574219 125.296875 354.691406 125.296875 L 344.53125 125.296875 Z M 323.976563 136.5625 C 323.402344 138.828125 323.359375 140.453125 323.84375 141.449219 C 324.335938 142.433594 325.21875 142.929688 326.492188 142.929688 C 327.800781 142.929688 328.941406 142.445313 329.902344 141.476563 C 330.863281 140.507813 331.664063 138.765625 332.300781 136.261719 C 332.835938 134.144531 332.847656 132.601563 332.347656 131.621094 C 331.84375 130.65625 330.953125 130.164063 329.664063 130.164063 C 328.4375 130.164063 327.328125 130.660156 326.328125 131.652344 C 325.339844 132.640625 324.550781 134.28125 323.972656 136.5625 Z M 317.882813 136.53125 C 318.808594 132.871094 320.429688 130.019531 322.738281 127.980469 C 325.046875 125.941406 327.804688 124.914063 331.007813 124.914063 C 334.289063 124.914063 336.570313 125.917969 337.839844 127.929688 C 339.105469 129.929688 339.285156 132.742188 338.371094 136.347656 C 337.710938 138.96875 336.773438 141.121094 335.574219 142.800781 C 334.371094 144.476563 332.921875 145.78125 331.222656 146.71875 C 329.515625 147.652344 327.574219 148.117188 325.382813 148.117188 C 323.160156 148.117188 321.421875 147.710938 320.164063 146.910156 C 318.910156 146.101563 318.054688 144.828125 317.585938 143.082031 C 317.121094 141.332031 317.21875 139.15625 317.882813 136.53125 Z M 305.265625 134.867188 L 306.761719 134.867188 C 307.9375 134.867188 308.816406 134.636719 309.414063 134.167969 C 310.003906 133.707031 310.390625 133.109375 310.574219 132.390625 C 310.753906 131.683594 310.699219 131.082031 310.40625 130.597656 C 310.121094 130.109375 309.410156 129.863281 308.269531 129.863281 L 306.535156 129.863281 Z M 301.5625 125.296875 L 311.695313 125.296875 C 313.902344 125.296875 315.40625 125.898438 316.199219 127.09375 C 316.996094 128.285156 317.117188 129.988281 316.558594 132.1875 C 315.988281 134.453125 314.941406 136.222656 313.421875 137.496094 C 311.898438 138.773438 309.910156 139.410156 307.453125 139.410156 L 304.117188 139.410156 L 302.011719 147.738281 L 295.890625 147.738281 Z M 281.671875 125.296875 L 275.996094 147.738281 L 292.632813 147.738281 L 293.914063 142.652344 L 283.394531 142.652344 L 284.511719 138.234375 L 293.996094 138.234375 L 295.15625 133.660156 L 285.671875 133.660156 L 286.574219 130.089844 L 296.796875 130.089844 L 298.007813 125.296875 Z M 265.136719 130.382813 L 262.039063 142.636719 L 263.535156 142.636719 C 264.808594 142.636719 265.753906 142.480469 266.371094 142.15625 C 266.992188 141.835938 267.554688 141.273438 268.066406 140.476563 C 268.574219 139.675781 269.050781 138.375 269.507813 136.578125 C 270.109375 134.203125 270.179688 132.578125 269.71875 131.699219 C 269.257813 130.824219 268.238281 130.382813 266.660156 130.382813 Z M 260.328125 125.296875 L 269.386719 125.296875 C 271.171875 125.296875 272.539063 125.578125 273.503906 126.121094 C 274.464844 126.679688 275.171875 127.46875 275.628906 128.496094 C 276.085938 129.53125 276.300781 130.726563 276.28125 132.097656 C 276.257813 133.464844 276.050781 134.914063 275.664063 136.445313 C 275.058594 138.835938 274.347656 140.699219 273.53125 142.023438 C 272.71875 143.34375 271.773438 144.449219 270.695313 145.335938 C 269.621094 146.230469 268.554688 146.828125 267.503906 147.125 C 266.0625 147.53125 264.796875 147.738281 263.714844 147.738281 L 254.65625 147.738281 Z M 232.671875 125.296875 L 238.773438 125.296875 L 234.496094 142.207031 L 244.007813 142.207031 L 242.613281 147.738281 L 226.996094 147.738281 Z M 212.757813 125.296875 L 207.085938 147.738281 L 223.71875 147.738281 L 225.003906 142.652344 L 214.480469 142.652344 L 215.597656 138.234375 L 225.085938 138.234375 L 226.242188 133.660156 L 216.757813 133.660156 L 217.660156 130.089844 L 227.882813 130.089844 L 229.09375 125.296875 Z M 196.226563 130.382813 L 193.121094 142.636719 L 194.621094 142.636719 C 195.898438 142.636719 196.839844 142.480469 197.460938 142.15625 C 198.078125 141.835938 198.644531 141.273438 199.152344 140.476563 C 199.660156 139.675781 200.136719 138.375 200.59375 136.578125 C 201.195313 134.203125 201.265625 132.578125 200.808594 131.699219 C 200.34375 130.824219 199.324219 130.382813 197.746094 130.382813 Z M 191.414063 125.296875 L 200.472656 125.296875 C 202.257813 125.296875 203.628906 125.578125 204.589844 126.121094 C 205.546875 126.679688 206.257813 127.46875 206.714844 128.496094 C 207.171875 129.53125 207.386719 130.726563 207.367188 132.097656 C 207.34375 133.464844 207.136719 134.914063 206.746094 136.445313 C 206.144531 138.835938 205.433594 140.699219 204.617188 142.023438 C 203.808594 143.34375 202.859375 144.449219 201.78125 145.335938 C 200.703125 146.230469 199.640625 146.828125 198.585938 147.125 C 197.148438 147.53125 195.882813 147.738281 194.800781 147.738281 L 185.742188 147.738281 Z M 191.414063 125.296875 "/>
</g>
<path style=" stroke:none;fill-rule:evenodd;fill:rgb(85.9375%,20.384216%,14.501953%);fill-opacity:1;" d="M 106.257813 45.265625 C 106.195313 37.546875 112.242188 31.425781 119.953125 31.371094 C 127.777344 31.308594 133.828125 37.371094 133.886719 45.265625 C 133.949219 52.878906 127.71875 59.109375 120.070313 59.109375 C 112.484375 59.054688 106.316406 52.9375 106.257813 45.265625 Z M 106.257813 45.265625 "/>
<path style=" stroke:none;fill-rule:evenodd;fill:rgb(85.9375%,20.384216%,14.501953%);fill-opacity:1;" d="M 136.496094 3.96875 C 137.03125 3.566406 137.445313 3.621094 137.859375 3.851563 C 145.273438 7.339844 152.507813 6.078125 159.621094 2.9375 C 163.585938 1.152344 167.636719 0.00390625 171.914063 -0.0234375 L 172.214844 -0.0234375 C 172.640625 -0.0234375 173.066406 -0.0078125 173.496094 0.015625 C 180.257813 0.414063 184.765625 7.453125 181.980469 13.117188 C 181.03125 15.0625 179.726563 16.203125 177.238281 16.039063 C 174.6875 15.863281 172.078125 15.980469 169.527344 15.980469 C 166.796875 16.039063 164.191406 16.265625 162.289063 13.460938 C 161.105469 11.746094 158.617188 11.574219 156.484375 11.347656 C 153.933594 11.058594 151.320313 10.945313 148.769531 10.714844 C 144.621094 10.371094 140.945313 8.769531 137.859375 6.023438 C 137.269531 5.453125 136.4375 4.941406 136.496094 3.96875 Z M 136.496094 3.96875 "/>
<path style=" stroke:none;fill-rule:evenodd;fill:rgb(85.9375%,20.384216%,14.501953%);fill-opacity:1;" d="M 101.164063 57.757813 C 83.871094 44.953125 71.265625 40.929688 57.269531 40.503906 C 43.269531 40.078125 26.042969 43.898438 14.539063 48.707031 C 7.890625 51.484375 3.957031 53.535156 2.023438 54.957031 C 0.511719 56.066406 0.0078125 56.730469 1.535156 57.703125 C 5.933594 60.507813 25.53125 71.632813 30.445313 73.878906 C 35.871094 76.351563 39.164063 74.441406 42.46875 70.90625 C 45.761719 67.371094 50.601563 61.921875 58.292969 58.324219 C 65.992188 54.714844 73.167969 54.289063 81.820313 55.210938 C 90.472656 56.128906 96.40625 57.894531 98.089844 58.179688 C 99.777344 58.460938 100.578125 58.671875 101.164063 57.757813 Z M 101.164063 57.757813 "/>
<path style=" stroke:none;fill-rule:evenodd;fill:rgb(85.9375%,20.384216%,14.501953%);fill-opacity:1;" d="M 127.816406 64.144531 C 149.246094 67.96875 164.714844 62.660156 177.101563 47.539063 C 180.046875 43.953125 171.574219 44.027344 172.308594 42.664063 C 172.878906 41.597656 179.234375 35.984375 178.039063 35.820313 C 174.628906 35.34375 168.632813 35.285156 165.070313 35.277344 C 161.140625 35.273438 159.738281 37.296875 158.808594 40.28125 C 157.871094 43.261719 156.324219 48.859375 151.050781 53.824219 C 145.121094 59.40625 138.148438 62.769531 127.816406 64.144531 Z M 127.816406 64.144531 "/>
<path style=" stroke:none;fill-rule:evenodd;fill:rgb(85.9375%,20.384216%,14.501953%);fill-opacity:1;" d="M 178.890625 19.59375 L 165.410156 19.59375 C 165.410156 19.59375 175.058594 60.167969 175.921875 62.796875 C 176.789063 65.417969 179.511719 64.230469 179.511719 60.167969 C 179.511719 56.113281 178.890625 19.59375 178.890625 19.59375 Z M 178.890625 19.59375 "/>
<path style=" stroke:none;fill-rule:evenodd;fill:rgb(85.9375%,20.384216%,14.501953%);fill-opacity:1;" d="M 69.773438 107.871094 C 104.109375 101.851563 132.148438 109.121094 156.265625 133.765625 C 159.246094 136.820313 171.242188 146.28125 160.289063 146.957031 C 155.617188 147.25 135.519531 147.136719 129.996094 146.707031 C 123.902344 146.238281 120.890625 143.984375 119.382813 139.894531 C 111.246094 117.816406 92.8125 109.152344 69.773438 107.871094 Z M 69.773438 107.871094 "/>
<path style=" stroke:none;fill-rule:evenodd;fill:rgb(32.542419%,32.151794%,33.325195%);fill-opacity:1;" d="M 102.871094 90.261719 L 106.59375 90.261719 C 108.746094 90.261719 110.464844 89.710938 111.742188 88.621094 C 113.015625 87.539063 114.171875 84.742188 114.871094 82.296875 C 115.570313 79.871094 115.988281 76.796875 115.414063 75.660156 C 114.847656 74.515625 113.609375 73.945313 111.699219 73.945313 L 107.414063 73.945313 Z M 91.511719 98.539063 L 100.828125 66.070313 L 114.019531 66.070313 C 119.1875 66.070313 122.648438 67.414063 124.414063 70.101563 C 126.175781 72.789063 126.277344 76.867188 124.703125 82.339844 C 123.855469 85.304688 122.636719 87.917969 121.046875 90.1875 C 119.460938 92.453125 117.574219 94.273438 115.398438 95.652344 C 113.761719 96.683594 112.023438 97.414063 110.1875 97.871094 C 108.355469 98.316406 105.898438 98.539063 102.820313 98.539063 Z M 91.511719 98.539063 "/>
<path style=" stroke:none;fill-rule:evenodd;fill:rgb(32.542419%,32.151794%,33.325195%);fill-opacity:1;" d="M 78.558594 80.132813 L 83.148438 80.132813 C 85.867188 80.132813 88.617188 79.121094 89.398438 76.410156 C 90.128906 73.855469 88.1875 72.554688 85.703125 72.554688 L 80.742188 72.554688 Z M 76.242188 88.152344 L 73.214844 98.539063 L 64.183594 98.539063 L 73.511719 66.070313 L 88.480469 66.070313 C 92.011719 66.070313 95.039063 67.144531 96.59375 68.726563 C 98.328125 70.488281 99.136719 74.203125 98.152344 77.640625 C 97.191406 80.984375 95.460938 83.613281 93.160156 85.429688 C 90.855469 87.238281 88.039063 88.152344 84.746094 88.152344 Z M 76.242188 88.152344 "/>
<path style=" stroke:none;fill-rule:evenodd;fill:rgb(32.542419%,32.151794%,33.325195%);fill-opacity:1;" d="M 50.785156 98.539063 L 60.109375 66.070313 L 69.136719 66.070313 L 59.808594 98.539063 Z M 50.785156 98.539063 "/>
</g>
</svg>
